<svg width="48" height="48" xmlns="http://www.w3.org/2000/svg">

 <g>
  <title>background</title>
  <rect fill="none" id="canvas_background" height="402" width="582" y="-1" x="-1"/>
 </g>
 <g>
  <title>Layer 1</title>
  <path id="svg_1" d="m39,16l0,25c0,1.105 -0.895,2 -2,2l-26,0c-1.105,0 -2,-0.895 -2,-2l0,-34c0,-1.105 0.895,-2 2,-2l17,0l3,8l8,3z" fill="#4c4c4c"/>
  <path id="svg_2" d="m28,5l0,9c0,1.105 0.895,2 2,2l9,0l-11,-11z" fill="#333333"/>
  <path stroke="null" id="svg_4" d="m33.485287,27.087591l-7.558166,0c-0.13907,0 -0.251939,-0.224 -0.251939,-0.5l0,-1c0,-0.276 0.112869,-0.5 0.251939,-0.5l7.558166,0c0.13907,0 0.251939,0.224 0.251939,0.5l0,1c0,0.276 -0.112869,0.5 -0.251939,0.5z" fill="#00bf00"/>
  <path stroke="null" id="svg_5" d="m29.83394,30.045724l-6.573196,0c-0.106718,0 -0.193329,-0.224 -0.193329,-0.5l0,-1c0,-0.276 0.086612,-0.5 0.193329,-0.5l6.573196,0c0.106718,0 0.193329,0.224 0.193329,0.5l0,1c0,0.276 -0.086612,0.5 -0.193329,0.5z" fill="#00bf00"/>
  <path stroke="null" id="svg_7" d="m31.993307,33.695359l-7.607259,0c-0.123506,0 -0.223743,-0.224 -0.223743,-0.5l0,-1c0,-0.276 0.100237,-0.5 0.223743,-0.5l7.607259,0c0.123506,0 0.223743,0.224 0.223743,0.5l0,1c0,0.276 -0.100237,0.5 -0.223743,0.5z" fill="#00bf00"/>
  <path stroke="null" id="svg_8" d="m24.355497,36.941606l-2.25479,0c-0.041488,0 -0.07516,-0.224 -0.07516,-0.5l0,-1c0,-0.276 0.033672,-0.5 0.07516,-0.5l2.25479,0c0.041488,0 0.07516,0.224 0.07516,0.5l0,1c0,0.276 -0.033672,0.5 -0.07516,0.5z" fill="#00bf00"/>
  <path stroke="null" id="svg_9" d="m24.840215,27.087591l-6.87386,0c-0.126479,0 -0.229129,-0.224 -0.229129,-0.5l0,-1c0,-0.276 0.10265,-0.5 0.229129,-0.5l6.87386,0c0.126479,0 0.229129,0.224 0.229129,0.5l0,1c0,0.276 -0.10265,0.5 -0.229129,0.5z" fill="#00bf00"/>
  <path stroke="null" id="svg_10" d="m19.629968,23.543796l-4.763586,0c-0.077338,0 -0.140105,-0.224 -0.140105,-0.5l0,-1c0,-0.276 0.062767,-0.5 0.140105,-0.5l4.763586,0c0.077338,0 0.140105,0.224 0.140105,0.5l0,1c0,0.276 -0.062767,0.5 -0.140105,0.5z" fill="#00bf00"/>
  <path stroke="null" id="svg_11" d="m29.281225,23.543796l-8.555149,0c-0.138895,0 -0.251623,-0.224 -0.251623,-0.5l0,-1c0,-0.276 0.112728,-0.5 0.251623,-0.5l8.555149,0c0.138897,0 0.251623,0.224 0.251623,0.5l0,1c0,0.276 -0.112726,0.5 -0.251623,0.5z" fill="#00bf00"/>
  <path stroke="null" id="svg_12" d="m22.063259,30.228206l-3.988038,0c-0.064747,0 -0.117295,-0.224 -0.117295,-0.5l0,-1c0,-0.276 0.052548,-0.5 0.117295,-0.5l3.988038,0c0.064747,0 0.117295,0.224 0.117295,0.5l0,1c0,0.276 -0.052548,0.5 -0.117295,0.5z" fill="#00bf00"/>
  <path stroke="null" id="svg_13" d="m23.649837,33.695359l-2.781632,0c-0.045161,0 -0.081813,-0.224 -0.081813,-0.5l0,-1c0,-0.276 0.036652,-0.5 0.081813,-0.5l2.781632,0c0.045161,0 0.081813,0.224 0.081813,0.5l0,1c0,0.276 -0.036652,0.5 -0.081813,0.5z" fill="#00bf00"/>
  <path stroke="null" id="svg_14" d="m21.310333,36.941606l-3.28125,0c-0.060375,0 -0.109375,-0.224 -0.109375,-0.5l0,-1c0,-0.276 0.049,-0.5 0.109375,-0.5l3.28125,0c0.060375,0 0.109375,0.224 0.109375,0.5l0,1c0,0.276 -0.049,0.5 -0.109375,0.5z" fill="#00bf00"/>
  <path stroke="null" id="svg_15" d="m33.642107,36.941606l-8.328011,0c-0.153235,0 -0.2776,-0.224 -0.2776,-0.5l0,-1c0,-0.276 0.124365,-0.5 0.2776,-0.5l8.328011,0c0.153235,0 0.2776,0.224 0.2776,0.5l0,1c0,0.276 -0.124365,0.5 -0.2776,0.5z" fill="#00bf00"/>
 </g>
</svg>