<?xml version="1.0" encoding="utf-8"?>
<svg viewBox="0 0 48 48" width="48px" height="48px" xmlns="http://www.w3.org/2000/svg">
  <path d="M39,16v25c0,1.105-0.895,2-2,2H11c-1.105,0-2-0.895-2-2V7c0-1.105,0.895-2,2-2h17l3,8L39,16z" style="fill: rgb(203, 144, 144);"/>
  <path d="M28,5v9c0,1.105,0.895,2,2,2h9L28,5z" style="fill: rgb(217, 79, 79);"/>
  <polygon style="fill: rgb(216, 216, 216); stroke: rgb(0, 0, 0); stroke-width: 0px;" points="19.904 21.143 21.964 20.146 21.986 17.739 25.628 17.739 25.476 20.059 27.622 21.165 29.227 19.495 31.828 22.097 30.159 23.853 30.809 25.695 33.15 25.695 33.02 29.338 30.744 29.208 29.877 31.267 31.698 33.153 29.075 35.581 27.319 33.977 25.498 34.606 25.541 37.121 21.964 37.034 21.964 34.562 20.23 33.89 18.452 35.928 15.872 33.305 17.649 31.44 16.848 29.273 13.921 29.251 13.921 25.695 16.696 25.826 17.303 23.723 15.612 21.902 18.235 19.343"/>
  <ellipse style="stroke: rgb(0, 0, 0); stroke-width: 0px; fill: rgb(203, 144, 144);" cx="23.812" cy="27.396" rx="2.819" ry="2.874"/>
</svg>