<svg width="48" height="48" xmlns="http://www.w3.org/2000/svg"><path fill="none" d="M-1-1h582v402H-1z"/><g stroke="null" stroke-opacity="null" stroke-width="5" fill="#ffa"><path d="M23.954 31.778h.866v.8h-.866zM27.468 31.778h.866v.8h-.866zM25.686 31.778h.866v.8h-.866zM23.954 33.624h.866v.8h-.866zM27.468 33.624h.866v.8h-.866zM25.686 33.624h.866v.8h-.866zM23.954 35.409h.866v.8h-.866zM27.468 35.409h.866v.8h-.866zM25.686 35.409h.866v.8h-.866z"/></g><path d="M39 16v25a2 2 0 0 1-2 2H11a2 2 0 0 1-2-2V7a2 2 0 0 1 2-2h17l3 8 8 3z" fill="#00007f"/><path stroke-opacity="null" stroke-width="5" stroke="null" fill="#333" d="M14.912 33.863h1.277v9.058h-1.277z"/><path d="M28 5v9a2 2 0 0 0 2 2h9L28 5z" fill="#5656ff"/><circle stroke="null" cy="11.434" cx="18.753" stroke-opacity="null" stroke-width="null" fill="#fff" r="2.556"/><path stroke-linecap="null" stroke-linejoin="null" stroke-opacity="null" stroke-width="null" stroke="null" fill="none" d="m8.9 35.154 9.124-7.208M4.52 36.705l15.694-9.306M15.104 26.03l14.234 8.668"/><path stroke="null" stroke-linecap="null" stroke-linejoin="null" stroke-opacity="null" stroke-width="5" fill="none" d="m8.717 35.063 11.132-8.029"/><path stroke="null" stroke-opacity="null" stroke-width="5" fill="#7f7f7f" d="M29.296 19.281h7.981v23.723h-7.981z"/><path stroke="null" stroke-opacity="null" stroke-width="5" fill="#999" d="M23.07 25.391h6.113V43H23.07z"/><g stroke="null" stroke-opacity="null" stroke-width="5" fill="#ffa"><path d="M23.954 37.161h.866v.8h-.866zM27.468 37.161h.866v.8h-.866zM25.686 37.161h.866v.8h-.866zM23.954 39.008h.866v.8h-.866zM27.468 39.008h.866v.8h-.866zM25.686 39.008h.866v.8h-.866zM23.954 40.792h.866v.8h-.866zM27.468 40.792h.866v.8h-.866zM25.686 40.792h.866v.8h-.866z"/></g><g stroke="null" stroke-opacity="null" stroke-width="5" fill="#ffa"><path d="M23.954 31.778h.866v.8h-.866zM27.468 31.778h.866v.8h-.866zM25.686 31.778h.866v.8h-.866zM23.954 33.624h.866v.8h-.866zM27.468 33.624h.866v.8h-.866zM25.686 33.624h.866v.8h-.866zM23.954 35.409h.866v.8h-.866zM27.468 35.409h.866v.8h-.866zM25.686 35.409h.866v.8h-.866z"/></g><g stroke="null" stroke-opacity="null" stroke-width="5" fill="#ffa"><path d="M23.954 26.395h.866v.8h-.866zM27.468 26.395h.866v.8h-.866zM25.686 26.395h.866v.8h-.866zM23.954 28.241h.866v.8h-.866zM27.468 28.241h.866v.8h-.866zM25.686 28.241h.866v.8h-.866zM23.954 30.026h.866v.8h-.866zM27.468 30.026h.866v.8h-.866zM25.686 30.026h.866v.8h-.866z"/></g><g stroke="null" stroke-opacity="null" stroke-width="5" fill="#ffff56"><path d="M30.165 20.836h1.213v1.186h-1.213zM35.089 20.836h1.213v1.186h-1.213zM32.591 20.836h1.213v1.186h-1.213zM30.165 23.573h1.213v1.186h-1.213zM35.089 23.573h1.213v1.186h-1.213zM32.591 23.573h1.213v1.186h-1.213zM30.165 26.219h1.213v1.186h-1.213zM35.089 26.219h1.213v1.186h-1.213zM32.591 26.219h1.213v1.186h-1.213z"/></g><g stroke="null" stroke-opacity="null" stroke-width="5" fill="#ffff56"><path d="M30.165 28.774h1.226v1.186h-1.226zM35.14 28.774h1.226v1.186H35.14zM32.616 28.774h1.226v1.186h-1.226zM30.165 31.511h1.226v1.186h-1.226zM35.14 31.511h1.226v1.186H35.14zM32.616 31.511h1.226v1.186h-1.226zM30.165 34.157h1.226v1.186h-1.226zM35.14 34.157h1.226v1.186H35.14zM32.616 34.157h1.226v1.186h-1.226z"/></g><g stroke="null" stroke-opacity="null" stroke-width="5" fill="#ffff56"><path d="M30.165 36.437h1.226v1.186h-1.226zM35.14 36.437h1.226v1.186H35.14zM32.616 36.437h1.226v1.186h-1.226z"/></g><g stroke="null" stroke-opacity="null" stroke-width="5" fill="#ffff56"><path d="M30.165 39.174h1.226v1.186h-1.226zM35.14 39.174h1.226v1.186H35.14zM32.616 39.174h1.226v1.186h-1.226z"/></g><circle stroke="null" cy="11.92" cx="17.537" stroke-opacity="null" stroke-width="null" fill="#00007f" r="2.556"/><ellipse stroke="null" ry="3.556" rx="2.918" cy="29.638" cx="15.277" stroke-opacity="null" stroke-width="5" fill="#063a1f"/><ellipse stroke="null" ry="3.556" rx="2.918" cy="31.401" cx="13.088" stroke-opacity="null" stroke-width="5" fill="#063a1f"/><ellipse stroke="null" ry="3.556" rx="2.918" cy="32.07" cx="17.465" stroke-opacity="null" stroke-width="5" fill="#063a1f"/><ellipse stroke="null" ry="3.556" rx="2.918" cy="34.441" cx="14.426" stroke-opacity="null" stroke-width="5" fill="#063a1f"/><ellipse stroke="null" ry="3.587" rx="3.283" cy="35.079" cx="17.161" stroke-opacity="null" stroke-width="5" fill="#063a1f"/></svg>