<?xml version="1.0" encoding="utf-8"?>
<svg viewBox="0 0 48 48" width="48px" height="48px" xmlns="http://www.w3.org/2000/svg">
  <path d="M 38.917 16 L 38.917 41 C 38.917 42.105 38.022 43 36.917 43 L 10.917 43 C 9.812 43 8.917 42.105 8.917 41 L 8.917 7 C 8.917 5.895 9.812 5 10.917 5 L 27.917 5 L 30.917 13 L 38.917 16 Z" style="fill: rgb(202, 232, 243);"/>
  <path d="M28,5v9c0,1.105,0.895,2,2,2h9L28,5z" style="fill: rgb(245, 86, 86);"/>
  <g>
    <g>
      <g/>
    </g>
  </g>
  <polyline style="stroke-width: 0px; stroke: rgb(6, 70, 0); fill: rgb(20, 121, 2);" points="8.925 30.374 14.833 24.077 20.352 30.416"/>
  <polyline style="stroke: rgb(0, 0, 0); stroke-width: 0px; fill: rgb(5, 130, 80);" points="20.142 30.332 28.65 18.488 38.992 30.457"/>
  <rect x="8.925" y="30.332" width="29.992" height="9.842" style="stroke: rgb(0, 0, 0); stroke-width: 0px; fill: rgb(102, 194, 243);"/>
  <path d="M 8.891 40.102 L 38.918 39.965 C 38.918 40.594 38.96 41.313 38.754 41.799 C 38.414 42.601 37.674 43 36.98 43 L 10.745 42.999 C 10.015 42.916 9.415 42.541 9.095 41.792 C 8.909 41.356 8.882 40.772 8.891 40.102 Z" style="fill: rgb(102, 194, 243);"/>
  <path style="stroke: rgb(82, 162, 232); fill: none;" d="M 10.838 39.506 C 11.338 39.356 11.905 39.178 12.535 38.974 C 13.308 38.721 14.278 38.922 15.443 39.577 C 16.157 39.977 17.382 39.775 19.122 38.974 C 19.982 38.579 21.239 38.847 22.897 39.778 C 23.622 40.185 24.882 39.937 26.671 39.034 C 27.342 38.696 28.418 38.931 29.901 39.738 C 30.588 40.11 31.781 39.899 33.485 39.104 C 34.241 38.751 35.35 38.996 36.81 39.838"/>
  <path style="stroke: rgb(82, 162, 232); fill: none;" d="M 10.649 34.856 C 11.146 34.706 11.708 34.528 12.334 34.324 C 13.102 34.071 14.066 34.272 15.223 34.927 C 15.931 35.327 17.148 35.125 18.876 34.324 C 19.73 33.929 20.978 34.197 22.625 35.128 C 23.346 35.535 24.597 35.287 26.373 34.384 C 27.04 34.046 28.108 34.281 29.581 35.088 C 30.263 35.46 31.448 35.249 33.14 34.454 C 33.892 34.101 34.993 34.346 36.443 35.188"/>
  <ellipse style="stroke-width: 0px; stroke: rgb(233, 226, 142); fill: rgb(235, 218, 118);" cx="17.323" cy="14.054" rx="3.8" ry="3.8"/>
</svg>