<?xml version="1.0" encoding="utf-8"?>
<svg viewBox="0 0 48 48" width="48px" height="48px" xmlns="http://www.w3.org/2000/svg" xmlns:bx="https://boxy-svg.com">
  <path d="M 38.917 16 L 38.917 41 C 38.917 42.105 38.022 43 36.917 43 L 10.917 43 C 9.812 43 8.917 42.105 8.917 41 L 8.917 7 C 8.917 5.895 9.812 5 10.917 5 L 27.917 5 L 30.917 13 L 38.917 16 Z" style="fill: rgb(251, 225, 219);"/>
  <path d="M28,5v9c0,1.105,0.895,2,2,2h9L28,5z" style="fill: rgb(191, 57, 25);"/>
  <g>
    <g>
      <g/>
    </g>
  </g>
  <g style="" transform="matrix(0.828043, 0, 0, 0.828043, 4.108107, 4.655045)">
    <g transform="matrix(0.92921, 0, 0, 0.93127, 0.742053, 2.356757)" style="">
      <path style="stroke-width: 3px; fill: rgb(251, 225, 219); stroke: rgb(191, 57, 25);" d="M 15.221 19.266 C 15.221 19.266 19.073252864766506 19.265876130934803 20.351 20.148 C 21.594184631416034 21.006262802386725 22.820406259218693 22.949327295220368 22.853 24.393 C 22.88607829637248 25.858135097992253 21.767832643493577 28.01685111590297 20.476 28.877 C 19.06784058527307 29.81460345452527 14.471 29.428 14.471 29.428" bx:d="M 15.221 19.266 R 20.351 20.148 R 22.853 24.393 R 20.476 28.877 R 14.471 29.428 1@50ce8015"/>
      <path style="fill: rgb(216, 216, 216); stroke-width: 3px; stroke: rgb(191, 57, 25);" d="M 15.013 17.684 L 13.428 37.324"/>
    </g>
    <g transform="matrix(0.92921, 0, 0, 0.93127, 14.295373, 2.382872)" style="">
      <path style="stroke-width: 3px; fill: rgb(251, 225, 219); stroke: rgb(191, 57, 25);" d="M 15.221 19.266 C 15.221 19.266 19.073252864766506 19.265876130934803 20.351 20.148 C 21.594184631416034 21.006262802386725 22.820406259218693 22.949327295220368 22.853 24.393 C 22.88607829637248 25.858135097992253 21.767832643493577 28.01685111590297 20.476 28.877 C 19.06784058527307 29.81460345452527 14.471 29.428 14.471 29.428" bx:d="M 15.221 19.266 R 20.351 20.148 R 22.853 24.393 R 20.476 28.877 R 14.471 29.428 1@50ce8015"/>
      <path style="fill: rgb(216, 216, 216); stroke-width: 3px; stroke: rgb(191, 57, 25);" d="M 15.013 17.684 L 13.428 37.324"/>
    </g>
  </g>
</svg>